# xmcd CD database file
#
# Track frame offsets:
#	150
#	14491
#	28920
#	42991
#	57192
#	72102
#	87265
#	102522
#	117297
#	132999
#	148256
#
# Disc length: 2186 seconds
#
# Revision: 1
# Processed by: cddbd v1.5.2PL0 Copyright (c) Steve Scherf et al.
# Submitted via: CDex 1.51
#
DISCID=a008880b
DTITLE=Ray Scott - Ray Scott - Limted European Edition
DYEAR=2014
DGENRE=Country
TTITLE0=Cookin'
TTITLE1=Ain't Always Thirsty
TTITLE2=Drinkin' Beer
TTITLE3=Papa And Mama
TTITLE4=Tijuana Buzzkill
TTITLE5=Wheels On The House
TTITLE6=It Ain't Gonna Be You
TTITLE7=Leave This World
TTITLE8=Her Old Man
TTITLE9=The Ugly One
TTITLE10=I Miss The Days
EXTD=YEAR: 2014
EXTT0=
EXTT1=
EXTT2=
EXTT3=
EXTT4=
EXTT5=
EXTT6=
EXTT7=
EXTT8=
EXTT9=
EXTT10=
PLAYORDER=
